<svg xmlns="http://www.w3.org/2000/svg" width="502" height="502" viewBox="450 90 420 570">
<g>
<path d="M 698.95 538.47 C664.54,572.86 635.96,601.00 635.44,601.00 C634.91,601.00 625.10,591.61 613.63,580.13 C596.90,563.38 592.90,558.88 593.41,557.30 C593.95,555.58 607.02,541.69 611.69,537.86 C613.16,536.65 613.28,536.76 612.75,538.81 C612.28,540.65 613.14,542.06 617.04,545.81 C619.73,548.39 622.51,550.98 623.22,551.58 C623.92,552.17 626.06,554.58 627.97,556.93 C629.73,559.12 630.69,561.03 632.18,561.63 C636.14,563.22 643.86,555.49 680.65,518.64 C684.69,514.59 689.09,510.19 693.87,505.41 C725.57,473.71 753.84,445.01 756.69,441.64 C771.98,423.55 782.49,402.24 786.55,381.08 C788.24,372.30 788.63,340.12 787.12,334.26 C786.59,332.19 785.65,328.02 785.04,325.00 C783.79,318.79 779.11,305.57 774.89,296.30 C773.34,292.89 771.12,286.36 769.97,281.80 C765.29,263.31 758.54,243.99 752.75,232.51 C749.02,225.10 736.74,203.92 733.03,198.50 C731.53,196.30 729.56,193.38 728.66,192.00 C727.75,190.62 726.27,188.38 725.36,187.00 C724.45,185.62 726.81,187.65 730.61,191.50 C737.88,198.88 749.40,209.00 750.54,209.00 C750.91,209.00 752.17,210.24 753.35,211.75 C754.52,213.26 757.21,216.39 759.32,218.70 C761.43,221.01 763.26,223.54 763.37,224.33 C763.49,225.11 765.05,227.50 766.84,229.63 C774.95,239.28 792.97,267.09 795.90,274.49 C796.12,275.05 797.61,278.20 799.22,281.50 C803.69,290.65 806.49,298.98 810.99,316.50 C818.73,346.58 818.24,375.26 809.53,403.21 C805.99,414.55 796.36,433.75 789.07,444.00 C779.86,456.96 766.83,470.62 698.95,538.47 ZM 587.17 515.25 C588.25,516.76 588.99,518.00 588.82,517.99 C588.64,517.99 585.51,514.95 581.86,511.24 C578.20,507.53 572.11,501.58 568.32,498.00 C542.71,473.87 513.37,434.49 507.90,416.94 C505.35,408.74 505.15,377.25 507.58,366.50 C508.45,362.65 509.54,357.70 510.01,355.50 C512.97,341.44 521.13,322.26 528.61,311.75 C530.48,309.13 532.00,306.72 532.00,306.39 C532.00,306.06 533.01,304.56 534.25,303.05 C535.49,301.54 538.08,298.35 540.00,295.96 C547.75,286.33 565.64,268.01 609.00,225.27 C666.94,168.16 668.15,167.00 669.62,167.00 C671.00,167.00 681.84,177.57 684.98,181.98 L 687.05 184.87 L 627.25 245.19 C594.37,278.36 565.19,308.42 562.42,312.00 C547.86,330.79 539.64,347.73 536.16,366.10 C532.25,386.83 532.43,398.37 537.07,421.28 C539.30,432.32 546.10,451.39 549.67,456.65 C550.97,458.57 551.80,460.52 551.51,460.98 C550.11,463.26 569.70,494.97 579.02,505.51 C582.42,509.36 586.09,513.74 587.17,515.25 Z" fill="rgb(6,169,251)"/>
<path d="M 698.95 538.47 C731.36,506.07 751.27,486.02 764.23,472.51 C751.74,485.61 734.11,503.33 708.28,529.15 L 655.06 582.36 L 666.78 594.59 C673.23,601.31 678.72,606.85 679.00,606.89 C679.82,607.00 795.03,491.95 801.09,484.95 C814.17,469.87 825.22,446.82 829.07,426.63 C831.97,411.42 831.75,389.93 828.53,373.74 C825.61,359.06 818.52,338.00 816.51,338.00 C816.32,338.00 816.19,342.49 816.17,348.77 C815.53,338.17 813.80,327.43 810.99,316.50 C806.49,298.98 803.69,290.65 799.22,281.50 C797.61,278.20 796.12,275.05 795.90,274.49 C792.97,267.09 774.95,239.28 766.84,229.63 C765.05,227.50 763.49,225.11 763.37,224.33 C763.26,223.54 761.43,221.01 759.32,218.70 C757.21,216.39 754.52,213.26 753.35,211.75 C752.17,210.24 750.91,209.00 750.54,209.00 C749.40,209.00 737.88,198.88 730.61,191.50 C726.81,187.65 724.45,185.62 725.36,187.00 C726.27,188.38 727.75,190.62 728.66,192.00 L 728.70 192.07 C728.20,191.34 727.72,190.66 727.27,190.05 C726.30,188.70 724.70,186.00 723.72,184.05 C721.77,180.16 722.16,180.52 756.84,214.50 C794.68,251.58 811.24,271.36 828.71,300.35 C858.00,348.96 866.45,404.72 851.39,450.00 C844.90,469.50 835.51,485.94 820.96,503.22 C816.67,508.33 783.43,542.31 747.09,578.75 C710.76,615.19 680.46,645.00 679.76,645.00 C679.06,645.00 659.21,625.71 635.64,602.14 C629.88,596.38 624.86,591.34 620.49,586.95 C628.77,595.10 635.02,601.00 635.44,601.00 C635.96,601.00 664.54,572.86 698.95,538.47 ZM 587.17 515.25 C586.09,513.74 582.42,509.36 579.02,505.51 C569.70,494.97 550.11,463.26 551.51,460.98 C551.73,460.63 551.29,459.40 550.49,457.98 C550.52,457.99 550.54,458.00 550.56,458.00 C550.93,458.00 550.93,450.69 550.54,441.75 C549.32,413.44 553.41,393.00 564.79,370.50 C570.69,358.84 576.54,349.33 583.86,339.50 C589.29,332.20 706.91,214.00 708.75,214.00 C709.97,214.00 719.83,228.33 722.24,233.62 C723.31,235.97 720.96,238.49 668.86,290.79 C616.89,342.97 606.31,354.35 598.47,366.61 C588.52,382.17 580.90,402.36 578.93,418.44 C577.61,429.16 578.17,451.10 580.03,461.50 C581.91,472.01 590.70,496.88 595.72,505.87 C598.21,510.34 598.33,511.01 597.06,513.38 C595.29,516.70 591.97,518.88 589.87,518.10 C589.61,518.01 589.12,517.67 588.41,517.10 C588.11,516.61 587.68,515.96 587.17,515.25 ZM 613.04 537.40 C613.22,537.31 613.36,537.27 613.44,537.30 C614.02,537.48 617.34,541.20 620.81,545.57 C624.28,549.93 629.06,555.75 631.43,558.50 L 634.18 561.68 C633.39,561.89 632.74,561.86 632.18,561.63 C630.69,561.03 629.73,559.12 627.97,556.93 C626.06,554.58 623.92,552.17 623.22,551.58 C622.51,550.98 619.73,548.39 617.04,545.81 C613.14,542.06 612.28,540.65 612.75,538.81 C612.92,538.14 613.03,537.67 613.04,537.40 ZM 534.57 406.97 C532.94,395.23 533.02,386.08 534.74,374.48 C533.36,385.02 533.30,395.94 534.57,406.97 ZM 556.99 319.34 C558.70,316.92 560.50,314.48 562.42,312.00 C563.46,310.67 568.17,305.64 575.39,298.14 C566.49,307.57 561.03,313.88 556.99,319.34 ZM 568.32 498.00 C572.08,501.55 578.11,507.45 581.77,511.16 C577.79,507.43 572.39,502.20 565.57,495.49 C558.95,488.98 552.21,481.64 545.76,474.06 C553.15,482.72 560.89,491.00 568.32,498.00 ZM 805.45 413.89 C804.12,417.04 802.65,420.23 801.04,423.50 C797.34,430.99 794.26,436.76 789.45,443.46 C794.69,435.96 801.02,424.10 805.45,413.89 ZM 658.81 540.44 L 693.62 505.64 C725.44,473.83 753.80,445.05 756.68,441.64 C753.80,445.05 725.55,473.73 693.87,505.41 C689.09,510.19 684.69,514.59 680.65,518.64 C671.81,527.50 664.65,534.67 658.81,540.44 ZM 536.67 363.59 C539.13,352.09 543.51,341.10 550.21,329.80 C549.10,331.74 548.00,333.77 546.82,336.00 C542.24,344.60 538.86,353.88 536.67,363.59 ZM 731.56 196.34 C732.07,197.08 732.57,197.83 733.03,198.50 C734.54,200.71 737.48,205.54 740.68,210.98 C737.54,205.74 734.34,200.60 731.56,196.34 ZM 593.41 557.28 C593.41,557.28 593.41,557.27 593.41,557.27 C593.76,556.19 596.92,552.60 600.65,548.75 C596.90,552.75 593.71,556.42 593.41,557.28 ZM 813.69 386.76 C812.92,390.92 811.95,394.99 810.77,399.02 C811.92,394.95 812.89,390.86 813.69,386.76 Z" fill="rgb(18,117,202)"/>
<path d="M 613.04 537.40 C613.06,536.83 612.68,537.05 611.69,537.86 C609.28,539.83 604.65,544.47 600.65,548.75 C596.92,552.60 593.76,556.19 593.41,557.27 C593.41,557.27 593.41,557.28 593.41,557.28 L 593.41 557.30 C592.99,558.61 595.69,561.96 606.25,572.70 C567.79,534.45 527.93,494.53 524.44,490.50 C521.98,487.66 517.50,482.02 510.29,472.66 C489.87,446.16 473.70,412.63 466.76,382.34 C463.76,369.26 463.58,367.37 463.54,348.00 C463.50,329.79 463.77,326.38 465.88,317.50 C472.49,289.69 483.98,267.43 502.54,246.50 C512.74,234.99 643.80,104.00 645.12,104.00 C645.83,104.00 703.75,161.51 747.21,205.07 C722.10,180.49 721.97,180.56 723.72,184.05 C724.70,186.00 726.30,188.70 727.27,190.05 C727.72,190.66 728.20,191.34 728.70,192.07 C729.34,193.03 730.45,194.69 731.56,196.34 C734.34,200.60 737.54,205.74 740.68,210.98 C745.33,218.90 750.54,228.12 752.75,232.51 C758.54,243.99 765.29,263.31 769.97,281.80 C771.12,286.36 773.34,292.89 774.89,296.30 C778.10,303.35 781.58,312.69 783.61,319.48 C780.89,310.50 775.75,297.45 773.93,295.56 C772.11,293.67 772.07,294.05 772.13,312.56 C772.20,334.33 771.28,341.26 766.36,355.93 C759.88,375.24 750.12,393.19 737.49,409.01 C734.55,412.70 705.56,442.45 673.08,475.11 C640.60,507.77 614.02,534.88 614.01,535.35 C614.00,536.05 620.04,544.34 625.38,551.24 C623.81,549.31 622.20,547.32 620.81,545.57 C617.34,541.20 614.02,537.48 613.44,537.30 C613.36,537.27 613.22,537.31 613.04,537.40 ZM 505.20 414.91 C505.30,415.19 505.61,407.30 505.93,396.64 C506.13,405.40 506.79,413.37 507.90,416.94 C511.78,429.40 527.70,452.86 545.76,474.06 L 545.77 474.07 C552.21,481.65 558.96,488.98 565.57,495.49 C572.39,502.20 577.79,507.43 581.77,511.16 L 581.86 511.24 C585.51,514.95 588.64,517.99 588.82,517.99 C588.91,517.99 588.75,517.65 588.41,517.10 C589.12,517.67 589.61,518.01 589.87,518.10 C591.97,518.88 595.29,516.70 597.06,513.38 C598.17,511.32 598.22,510.54 596.58,507.45 C597.78,509.49 598.82,510.98 599.08,510.99 C599.40,510.99 620.55,489.98 646.08,464.30 C671.61,438.61 696.84,413.30 702.14,408.05 C721.74,388.62 733.44,370.58 740.06,349.57 C743.99,337.08 744.98,329.81 744.99,313.38 C745.00,293.97 743.18,284.12 735.32,261.00 C731.90,250.96 725.25,237.00 723.88,237.00 C723.16,237.00 705.77,253.95 684.93,274.64 C721.46,237.91 723.19,235.70 722.24,233.62 C719.83,228.33 709.97,214.00 708.75,214.00 C707.22,214.00 624.83,296.54 594.62,327.93 C604.64,317.23 620.59,301.13 648.66,272.97 C681.85,239.68 709.00,212.13 709.00,211.73 C709.00,210.67 696.20,193.57 691.30,188.08 L 688.10 184.50 L 630.97 241.50 C628.71,243.76 626.46,246.00 624.23,248.23 C625.24,247.22 626.24,246.21 627.25,245.19 L 687.05 184.87 L 684.98 181.98 C681.84,177.57 671.00,167.00 669.62,167.00 C668.15,167.00 666.94,168.16 609.00,225.27 C600.26,233.89 592.55,241.51 585.76,248.27 C594.19,239.80 604.15,229.85 615.93,218.10 L 669.47 164.71 L 657.63 153.35 C651.12,147.11 645.49,142.00 645.13,142.00 C644.76,142.00 616.76,169.79 582.90,203.75 C518.94,267.91 513.57,273.89 505.04,290.50 C496.59,306.94 492.70,319.71 490.92,336.80 C488.83,356.95 491.65,375.30 501.08,402.85 C503.24,409.16 505.09,414.58 505.20,414.91 ZM 813.06 276.61 C805.44,266.14 796.91,255.92 786.00,244.18 C789.67,247.94 792.28,250.64 793.53,252.00 C799.69,258.70 806.47,267.32 813.06,276.61 ZM 826.42 496.47 C837.92,481.58 845.75,466.95 851.39,450.00 C851.77,448.84 852.14,447.68 852.50,446.51 C848.28,460.76 841.93,474.33 833.46,486.96 C831.43,489.99 829.26,492.96 826.42,496.47 ZM 577.27 348.87 C572.82,355.60 568.82,362.55 564.79,370.50 C562.29,375.45 560.14,380.30 558.32,385.16 C562.25,374.28 567.71,363.60 574.88,352.50 C575.69,351.24 576.48,350.04 577.27,348.87 ZM 756.30 442.09 C751.92,446.95 725.32,473.93 695.29,503.97 C724.44,474.69 753.93,444.86 756.65,441.68 C756.56,441.79 756.44,441.93 756.30,442.09 ZM 747.09 578.75 C770.63,555.15 792.87,532.57 806.78,518.21 C794.41,531.16 775.97,549.79 747.09,578.75 ZM 607.44 354.53 C604.14,358.65 601.14,362.62 599.62,364.92 C594.62,372.51 590.24,381.00 586.77,389.60 C590.00,381.53 594.00,373.60 598.47,366.61 C600.85,362.89 603.48,359.25 607.44,354.53 ZM 507.47 367.00 C507.63,365.58 507.78,364.54 507.92,364.00 C508.58,361.52 509.50,357.70 509.98,355.50 C510.50,353.12 511.15,350.61 511.91,348.04 C511.15,350.63 510.50,353.14 510.01,355.50 C509.54,357.70 508.45,362.65 507.58,366.50 C507.55,366.66 507.51,366.83 507.47,367.00 ZM 534.57 406.97 C533.70,399.41 533.45,391.90 533.83,384.53 C533.72,386.66 533.67,388.81 533.67,391.00 C533.65,397.12 534.10,403.44 534.98,409.81 C534.83,408.84 534.69,407.90 534.57,406.97 ZM 858.66 407.37 C858.94,396.90 858.22,386.21 856.53,375.44 C858.25,386.25 858.96,396.92 858.66,407.37 ZM 556.99 319.34 C557.31,318.90 557.64,318.47 557.98,318.02 C554.98,322.16 552.28,326.28 549.86,330.41 C549.97,330.21 550.09,330.00 550.21,329.80 C552.25,326.35 554.51,322.87 556.99,319.34 ZM 543.75 291.53 C542.29,293.19 541.05,294.66 540.00,295.96 C538.08,298.35 535.49,301.54 534.25,303.05 C535.49,301.54 538.08,298.34 540.00,295.94 C541.01,294.69 542.22,293.25 543.75,291.53 ZM 633.83 561.28 C633.96,561.41 634.10,561.55 634.23,561.67 C634.21,561.68 634.19,561.68 634.18,561.68 Z" fill="rgb(92,203,249)"/>
</g>
</svg>